<svg width="120" height="40" viewBox="0 0 120 40" fill="none" xmlns="http://www.w3.org/2000/svg">
<g clip-path="url(#clip0_10582_11210)">
<path d="M110.135 7.92969e-06H9.53468C9.16798 7.92969e-06 8.80568 7.92975e-06 8.43995 0.00200793C8.1338 0.00400793 7.83009 0.00981793 7.521 0.0147079C6.84951 0.0226097 6.17961 0.0816842 5.5171 0.191418C4.85552 0.303541 4.21467 0.514924 3.61622 0.818418C3.0185 1.12448 2.47235 1.52218 1.99757 1.99708C1.5203 2.47064 1.12246 3.01802 0.81935 3.61817C0.5154 4.21712 0.304641 4.85895 0.19435 5.52149C0.0830109 6.18319 0.0230984 6.85253 0.01515 7.52349C0.00587 7.83009 0.00489 8.13771 0 8.44435V31.5586C0.00489 31.8691 0.00587 32.1699 0.01515 32.4805C0.0231008 33.1514 0.0830134 33.8207 0.19435 34.4824C0.304336 35.1453 0.515108 35.7875 0.81935 36.3867C1.12233 36.9849 1.52022 37.5301 1.99757 38.001C2.47054 38.478 3.01705 38.876 3.61622 39.1797C4.21467 39.484 4.85545 39.6967 5.5171 39.8105C6.17972 39.9194 6.84956 39.9785 7.521 39.9873C7.83009 39.9941 8.1338 39.998 8.43995 39.998C8.80567 40 9.168 40 9.53468 40H110.135C110.494 40 110.859 40 111.219 39.998C111.523 39.998 111.836 39.9941 112.141 39.9873C112.811 39.9789 113.479 39.9198 114.141 39.8105C114.804 39.6959 115.448 39.4833 116.049 39.1797C116.647 38.8758 117.193 38.4779 117.666 38.001C118.142 37.5282 118.541 36.9835 118.848 36.3867C119.15 35.7871 119.358 35.145 119.467 34.4824C119.578 33.8206 119.64 33.1515 119.652 32.4805C119.656 32.1699 119.656 31.8691 119.656 31.5586C119.664 31.1953 119.664 30.834 119.664 30.4648V9.53614C119.664 9.16993 119.664 8.80665 119.656 8.44435C119.656 8.13771 119.656 7.83009 119.652 7.52345C119.64 6.85243 119.578 6.18324 119.467 5.52145C119.358 4.85929 119.149 4.21751 118.848 3.61813C118.23 2.4152 117.252 1.43603 116.049 0.818328C115.448 0.515575 114.804 0.304248 114.141 0.191328C113.48 0.0811107 112.811 0.0220157 112.141 0.0145679C111.836 0.00968793 111.523 0.00382793 111.219 0.00187793C110.859 -0.00012207 110.494 -0.00012207 110.135 -0.00012207V7.92969e-06Z" fill="#A6A6A6"/>
<path d="M8.44291 39.125C8.13823 39.125 7.84091 39.1211 7.53862 39.1143C6.91241 39.1061 6.28765 39.0516 5.66948 38.9512C5.09307 38.8519 4.53469 38.6673 4.01274 38.4033C3.49559 38.1415 3.0239 37.7983 2.61574 37.3867C2.20168 36.98 1.85696 36.5082 1.59523 35.9902C1.33062 35.4688 1.1475 34.9099 1.05223 34.333C0.949358 33.7131 0.893698 33.0863 0.885734 32.458C0.879394 32.2471 0.871094 31.5449 0.871094 31.5449V8.44434C0.871094 8.44434 0.879934 7.75293 0.885784 7.5498C0.89341 6.92248 0.948746 6.29665 1.05131 5.67773C1.14675 5.09925 1.33002 4.53875 1.59477 4.01563C1.85554 3.49794 2.19835 3.02586 2.60991 2.61768C3.02102 2.20562 3.49422 1.8606 4.01225 1.59521C4.533 1.33209 5.09033 1.14873 5.66557 1.05127C6.28577 0.949836 6.91269 0.894996 7.54108 0.88721L8.4434 0.875H111.212L112.125 0.8877C112.748 0.895099 113.369 0.94945 113.983 1.05029C114.565 1.14898 115.128 1.33362 115.654 1.59814C116.692 2.13299 117.537 2.97916 118.069 4.01807C118.33 4.53758 118.51 5.09351 118.605 5.66699C118.708 6.29099 118.766 6.92174 118.778 7.5542C118.781 7.8374 118.781 8.1416 118.781 8.44434C118.789 8.81934 118.789 9.17627 118.789 9.53613V30.4648C118.789 30.8281 118.789 31.1826 118.781 31.54C118.781 31.8652 118.781 32.1631 118.777 32.4697C118.766 33.0909 118.709 33.7104 118.606 34.3232C118.513 34.9043 118.331 35.4675 118.066 35.9932C117.803 36.5056 117.46 36.9733 117.051 37.3789C116.642 37.7927 116.17 38.1379 115.651 38.4014C115.126 38.6674 114.564 38.8527 113.983 38.9512C113.365 39.0522 112.741 39.1067 112.114 39.1143C111.821 39.1211 111.515 39.125 111.217 39.125L110.133 39.127L8.44291 39.125Z" fill="black"/>
<path d="M24.77 20.3007C24.7807 19.466 25.0024 18.6477 25.4145 17.9217C25.8265 17.1957 26.4154 16.5858 27.1265 16.1486C26.6748 15.5035 26.0788 14.9725 25.386 14.598C24.6932 14.2234 23.9226 14.0156 23.1354 13.991C21.4561 13.8147 19.8282 14.9958 18.9725 14.9958C18.1002 14.9958 16.7827 14.0085 15.364 14.0376C14.4463 14.0673 13.5519 14.3341 12.7681 14.8122C11.9842 15.2903 11.3375 15.9632 10.891 16.7655C8.95705 20.1139 10.3996 25.035 12.2522 27.7416C13.1791 29.0669 14.2624 30.5474 15.6799 30.4949C17.0669 30.4374 17.585 29.6104 19.2593 29.6104C20.918 29.6104 21.4041 30.4949 22.8503 30.4615C24.3387 30.4374 25.2764 29.1303 26.1708 27.7924C26.8368 26.848 27.3492 25.8043 27.6892 24.6999C26.8245 24.3341 26.0866 23.722 25.5675 22.9397C25.0483 22.1574 24.771 21.2396 24.77 20.3007V20.3007Z" fill="white"/>
<path d="M22.0395 12.2109C22.8511 11.2367 23.2509 9.98451 23.154 8.72028C21.9142 8.8505 20.769 9.44306 19.9465 10.3799C19.5443 10.8376 19.2363 11.37 19.0401 11.9468C18.8438 12.5235 18.7632 13.1333 18.8028 13.7413C19.4229 13.7477 20.0364 13.6132 20.5971 13.3482C21.1577 13.0831 21.6509 12.6942 22.0395 12.2109Z" fill="white"/>
<path d="M42.3047 27.1396H37.5713L36.4346 30.4961H34.4297L38.9131 18.0781H40.9961L45.4795 30.4961H43.4404L42.3047 27.1396ZM38.0615 25.5908H41.8135L39.9639 20.1435H39.9121L38.0615 25.5908Z" fill="white"/>
<path d="M55.1612 25.9697C55.1612 28.7832 53.6553 30.5908 51.3828 30.5908C50.8072 30.6209 50.2347 30.4883 49.7309 30.2082C49.2271 29.928 48.8124 29.5117 48.5342 29.0068H48.4912V33.4912H46.6328V21.4424H48.4317V22.9482H48.4659C48.7568 22.4458 49.1785 22.0316 49.6862 21.7497C50.1938 21.4679 50.7683 21.3289 51.3487 21.3476C53.6465 21.3477 55.1612 23.1641 55.1612 25.9697ZM53.251 25.9697C53.251 24.1367 52.3037 22.9316 50.8584 22.9316C49.4385 22.9316 48.4834 24.1621 48.4834 25.9697C48.4834 27.7939 49.4385 29.0156 50.8584 29.0156C52.3037 29.0156 53.251 27.8193 53.251 25.9697Z" fill="white"/>
<path d="M65.126 25.9697C65.126 28.7832 63.6201 30.5908 61.3477 30.5908C60.772 30.6209 60.1995 30.4883 59.6957 30.2082C59.1919 29.928 58.7772 29.5117 58.4991 29.0068H58.4561V33.4912H56.5977V21.4424H58.3965V22.9482H58.4307C58.7216 22.4458 59.1433 22.0316 59.651 21.7497C60.1586 21.4679 60.7332 21.3289 61.3135 21.3476C63.6114 21.3476 65.126 23.164 65.126 25.9697ZM63.2158 25.9697C63.2158 24.1367 62.2686 22.9316 60.8233 22.9316C59.4033 22.9316 58.4483 24.1621 58.4483 25.9697C58.4483 27.7939 59.4033 29.0156 60.8233 29.0156C62.2686 29.0156 63.2159 27.8193 63.2159 25.9697H63.2158Z" fill="white"/>
<path d="M71.711 27.0361C71.8487 28.2676 73.045 29.0761 74.6797 29.0761C76.2461 29.0761 77.3731 28.2675 77.3731 27.1572C77.3731 26.1933 76.6934 25.6162 75.084 25.2207L73.4746 24.833C71.1944 24.2822 70.1358 23.2158 70.1358 21.4853C70.1358 19.3427 72.003 17.871 74.6543 17.871C77.2783 17.871 79.0772 19.3427 79.1377 21.4853H77.2617C77.1494 20.246 76.125 19.498 74.6279 19.498C73.1309 19.498 72.1065 20.2548 72.1065 21.3564C72.1065 22.2343 72.7608 22.7509 74.3613 23.1464L75.7295 23.4823C78.2773 24.0849 79.3359 25.1083 79.3359 26.9247C79.3359 29.248 77.4854 30.703 74.542 30.703C71.7881 30.703 69.9287 29.2821 69.8086 27.036L71.711 27.0361Z" fill="white"/>
<path d="M83.3476 19.2998V21.4424H85.0693V22.9141H83.3476V27.9053C83.3476 28.6807 83.6924 29.042 84.4492 29.042C84.6536 29.0384 84.8577 29.0241 85.0605 28.999V30.4619C84.7203 30.5255 84.3744 30.5543 84.0283 30.5478C82.1953 30.5478 81.4805 29.8593 81.4805 28.1035V22.9141H80.1641V21.4424H81.4804V19.2998H83.3476Z" fill="white"/>
<path d="M86.0664 25.9697C86.0664 23.1211 87.7441 21.3311 90.3604 21.3311C92.9854 21.3311 94.6553 23.1211 94.6553 25.9697C94.6553 28.8262 92.9941 30.6084 90.3604 30.6084C87.7275 30.6084 86.0664 28.8262 86.0664 25.9697ZM92.7617 25.9697C92.7617 24.0156 91.8662 22.8623 90.3603 22.8623C88.8545 22.8623 87.96 24.0244 87.96 25.9697C87.96 27.9316 88.8545 29.0762 90.3603 29.0762C91.8662 29.0762 92.7617 27.9316 92.7617 25.9697H92.7617Z" fill="white"/>
<path d="M96.1875 21.4424H97.96V22.9834H98.003C98.1229 22.5021 98.4048 22.0768 98.8014 21.7789C99.198 21.481 99.6851 21.3287 100.181 21.3476C100.395 21.3469 100.608 21.3702 100.817 21.417V23.1553C100.547 23.0726 100.265 23.0347 99.9824 23.043C99.7124 23.032 99.4433 23.0796 99.1935 23.1825C98.9436 23.2854 98.719 23.4411 98.535 23.639C98.351 23.8369 98.2121 24.0723 98.1276 24.3289C98.0432 24.5856 98.0153 24.8575 98.0459 25.126V30.4961H96.1875L96.1875 21.4424Z" fill="white"/>
<path d="M109.386 27.8369C109.136 29.4805 107.535 30.6084 105.487 30.6084C102.854 30.6084 101.219 28.8437 101.219 26.0127C101.219 23.1729 102.862 21.3311 105.409 21.3311C107.914 21.3311 109.489 23.0518 109.489 25.7969V26.4336H103.095V26.5459C103.065 26.8791 103.107 27.2148 103.217 27.5306C103.327 27.8464 103.503 28.1352 103.734 28.3778C103.964 28.6203 104.243 28.8111 104.553 28.9374C104.863 29.0637 105.196 29.1226 105.53 29.1103C105.969 29.1515 106.41 29.0498 106.787 28.8203C107.164 28.5909 107.456 28.246 107.621 27.8369L109.386 27.8369ZM103.104 25.1348H107.63C107.647 24.8352 107.601 24.5354 107.496 24.2541C107.392 23.9729 107.23 23.7164 107.022 23.5006C106.813 23.2849 106.562 23.1145 106.285 23.0003C106.007 22.8861 105.709 22.8305 105.409 22.8369C105.107 22.8351 104.807 22.8933 104.527 23.008C104.246 23.1227 103.992 23.2918 103.778 23.5054C103.563 23.7191 103.393 23.973 103.278 24.2527C103.162 24.5323 103.103 24.8321 103.104 25.1348V25.1348Z" fill="white"/>
<path d="M37.8271 8.73101C38.2168 8.70305 38.6077 8.76191 38.9718 8.90335C39.3359 9.04478 39.6641 9.26526 39.9327 9.54889C40.2013 9.83251 40.4036 10.1722 40.525 10.5435C40.6464 10.9148 40.6839 11.3083 40.6348 11.6959C40.6348 13.6021 39.6045 14.6979 37.8271 14.6979H35.6719V8.73101H37.8271ZM36.5986 13.854H37.7236C38.002 13.8707 38.2806 13.825 38.5392 13.7204C38.7977 13.6158 39.0297 13.4548 39.2182 13.2493C39.4067 13.0437 39.5469 12.7987 39.6288 12.5321C39.7107 12.2655 39.7321 11.9839 39.6914 11.708C39.7291 11.4332 39.7056 11.1534 39.6224 10.8887C39.5393 10.6241 39.3987 10.3811 39.2106 10.1771C39.0226 9.97322 38.7917 9.81341 38.5346 9.70917C38.2776 9.60494 38.0006 9.55885 37.7236 9.57422H36.5986V13.854Z" fill="white"/>
<path d="M41.6819 12.4443C41.6536 12.1484 41.6875 11.8499 41.7813 11.5678C41.8751 11.2857 42.0269 11.0264 42.2268 10.8064C42.4268 10.5864 42.6705 10.4107 42.9423 10.2904C43.2142 10.1701 43.5082 10.108 43.8055 10.108C44.1027 10.108 44.3967 10.1701 44.6686 10.2904C44.9404 10.4107 45.1841 10.5864 45.3841 10.8064C45.584 11.0264 45.7358 11.2857 45.8296 11.5678C45.9235 11.8499 45.9573 12.1484 45.929 12.4443C45.9578 12.7406 45.9244 13.0396 45.8308 13.3221C45.7372 13.6046 45.5855 13.8644 45.3855 14.0848C45.1856 14.3052 44.9417 14.4814 44.6695 14.6019C44.3974 14.7225 44.1031 14.7847 43.8055 14.7847C43.5078 14.7847 43.2135 14.7225 42.9414 14.6019C42.6693 14.4814 42.4254 14.3052 42.2254 14.0848C42.0254 13.8644 41.8737 13.6046 41.7801 13.3221C41.6865 13.0396 41.6531 12.7406 41.6819 12.4443V12.4443ZM45.0149 12.4443C45.0149 11.4683 44.5764 10.8975 43.8069 10.8975C43.0345 10.8975 42.5999 11.4683 42.5999 12.4444C42.5999 13.4282 43.0345 13.9946 43.8069 13.9946C44.5765 13.9946 45.0149 13.4243 45.0149 12.4443H45.0149Z" fill="white"/>
<path d="M51.5742 14.6978H50.6523L49.7217 11.3813H49.6514L48.7246 14.6978H47.8115L46.5703 10.1948H47.4717L48.2783 13.6308H48.3447L49.2705 10.1948H50.1231L51.0488 13.6308H51.1191L51.9219 10.1948H52.8105L51.5742 14.6978Z" fill="white"/>
<path d="M53.8555 10.1948H54.7109V10.9102H54.7773C54.89 10.6532 55.08 10.4379 55.3209 10.2941C55.5617 10.1503 55.8415 10.0852 56.1211 10.1079C56.3402 10.0914 56.5602 10.1245 56.7648 10.2046C56.9694 10.2847 57.1533 10.4098 57.303 10.5706C57.4527 10.7315 57.5643 10.9239 57.6295 11.1337C57.6947 11.3436 57.7118 11.5654 57.6797 11.7827V14.6977H56.791V12.0059C56.791 11.2822 56.4766 10.9224 55.8193 10.9224C55.6706 10.9154 55.5221 10.9408 55.384 10.9966C55.246 11.0524 55.1216 11.1375 55.0195 11.2458C54.9174 11.3542 54.8399 11.4834 54.7924 11.6245C54.7448 11.7657 54.7284 11.9154 54.7441 12.0635V14.6978H53.8555L53.8555 10.1948Z" fill="white"/>
<path d="M59.0938 8.43701H59.9824V14.6978H59.0938V8.43701Z" fill="white"/>
<path d="M61.2171 12.4443C61.1888 12.1484 61.2226 11.8498 61.3165 11.5677C61.4104 11.2857 61.5621 11.0263 61.7621 10.8063C61.9621 10.5863 62.2058 10.4106 62.4777 10.2903C62.7495 10.17 63.0435 10.1079 63.3408 10.1079C63.6381 10.1079 63.9321 10.17 64.204 10.2903C64.4759 10.4106 64.7196 10.5863 64.9196 10.8063C65.1195 11.0263 65.2713 11.2857 65.3652 11.5677C65.459 11.8498 65.4929 12.1484 65.4646 12.4443C65.4934 12.7406 65.4599 13.0396 65.3663 13.3221C65.2727 13.6046 65.121 13.8644 64.921 14.0848C64.721 14.3052 64.4771 14.4814 64.2049 14.6019C63.9328 14.7224 63.6385 14.7847 63.3408 14.7847C63.0432 14.7847 62.7489 14.7224 62.4767 14.6019C62.2046 14.4814 61.9607 14.3052 61.7607 14.0848C61.5607 13.8644 61.409 13.6046 61.3153 13.3221C61.2217 13.0396 61.1882 12.7406 61.2171 12.4443V12.4443ZM64.5501 12.4443C64.5501 11.4683 64.1116 10.8975 63.3421 10.8975C62.5696 10.8975 62.1351 11.4683 62.1351 12.4444C62.1351 13.4282 62.5696 13.9946 63.3421 13.9946C64.1116 13.9946 64.5501 13.4243 64.5501 12.4443H64.5501Z" fill="white"/>
<path d="M66.4023 13.4243C66.4023 12.6138 67.0059 12.1465 68.0771 12.0801L69.2969 12.0098V11.6211C69.2969 11.1455 68.9824 10.877 68.375 10.877C67.8789 10.877 67.5352 11.0591 67.4365 11.3775H66.5762C66.667 10.604 67.3945 10.1079 68.416 10.1079C69.5449 10.1079 70.1816 10.6699 70.1816 11.6211V14.6978H69.3262V14.065H69.2559C69.1131 14.292 68.9127 14.477 68.6751 14.6012C68.4375 14.7254 68.1712 14.7844 67.9033 14.772C67.7143 14.7916 67.5232 14.7715 67.3425 14.7128C67.1617 14.6541 66.9953 14.5581 66.8538 14.4312C66.7124 14.3042 66.5992 14.149 66.5214 13.9756C66.4437 13.8022 66.4031 13.6144 66.4023 13.4243V13.4243ZM69.2969 13.0396V12.6631L68.1973 12.7334C67.5771 12.7749 67.2959 12.9859 67.2959 13.3828C67.2959 13.7881 67.6474 14.0239 68.1309 14.0239C68.2725 14.0383 68.4156 14.024 68.5516 13.9819C68.6876 13.9398 68.8138 13.8708 68.9226 13.7789C69.0313 13.6871 69.1205 13.5743 69.1849 13.4473C69.2492 13.3203 69.2873 13.1816 69.2969 13.0396V13.0396Z" fill="white"/>
<path d="M71.3477 12.4444C71.3477 11.0215 72.0791 10.1201 73.2168 10.1201C73.4982 10.1072 73.7775 10.1746 74.022 10.3145C74.2666 10.4544 74.4662 10.661 74.5977 10.9101H74.6641V8.43701H75.5527V14.6978H74.7012V13.9863H74.6309C74.4893 14.2338 74.2826 14.4378 74.0334 14.5763C73.7841 14.7148 73.5017 14.7825 73.2168 14.772C72.0713 14.772 71.3477 13.8706 71.3477 12.4444ZM72.2657 12.4444C72.2657 13.3994 72.7159 13.9741 73.4688 13.9741C74.2178 13.9741 74.6807 13.3911 74.6807 12.4483C74.6807 11.5098 74.2129 10.9185 73.4688 10.9185C72.7207 10.9185 72.2656 11.4971 72.2656 12.4444H72.2657Z" fill="white"/>
<path d="M79.2327 12.4443C79.2044 12.1484 79.2382 11.8499 79.3321 11.5678C79.4259 11.2857 79.5777 11.0264 79.7776 10.8064C79.9776 10.5864 80.2213 10.4107 80.4931 10.2904C80.765 10.1701 81.059 10.108 81.3562 10.108C81.6535 10.108 81.9475 10.1701 82.2193 10.2904C82.4912 10.4107 82.7349 10.5864 82.9348 10.8064C83.1348 11.0264 83.2865 11.2857 83.3804 11.5678C83.4742 11.8499 83.5081 12.1484 83.4798 12.4443C83.5086 12.7406 83.4752 13.0396 83.3816 13.3221C83.288 13.6046 83.1363 13.8644 82.9363 14.0848C82.7363 14.3052 82.4924 14.4814 82.2203 14.6019C81.9482 14.7225 81.6539 14.7847 81.3562 14.7847C81.0586 14.7847 80.7643 14.7225 80.4922 14.6019C80.22 14.4814 79.9761 14.3052 79.7761 14.0848C79.5762 13.8644 79.4245 13.6046 79.3309 13.3221C79.2373 13.0396 79.2039 12.7406 79.2327 12.4443V12.4443ZM82.5657 12.4443C82.5657 11.4683 82.1272 10.8975 81.3577 10.8975C80.5852 10.8975 80.1507 11.4683 80.1507 12.4444C80.1507 13.4282 80.5853 13.9946 81.3577 13.9946C82.1272 13.9946 82.5657 13.4243 82.5657 12.4443Z" fill="white"/>
<path d="M84.6719 10.1948H85.5273V10.9102H85.5938C85.7064 10.6532 85.8964 10.4379 86.1373 10.2941C86.3782 10.1503 86.6579 10.0852 86.9375 10.1079C87.1566 10.0914 87.3766 10.1245 87.5812 10.2046C87.7858 10.2847 87.9698 10.4098 88.1194 10.5706C88.2691 10.7315 88.3807 10.9239 88.4459 11.1337C88.5111 11.3436 88.5283 11.5654 88.4961 11.7827V14.6977H87.6074V12.0059C87.6074 11.2822 87.293 10.9224 86.6357 10.9224C86.487 10.9154 86.3385 10.9408 86.2004 10.9966C86.0624 11.0524 85.938 11.1375 85.8359 11.2458C85.7338 11.3542 85.6563 11.4834 85.6088 11.6245C85.5612 11.7657 85.5448 11.9154 85.5605 12.0635V14.6978H84.6719V10.1948Z" fill="white"/>
<path d="M93.5146 9.07373V10.2153H94.4902V10.9639H93.5146V13.2793C93.5146 13.751 93.709 13.9575 94.1514 13.9575C94.2646 13.9572 94.3778 13.9503 94.4902 13.937V14.6772C94.3307 14.7058 94.169 14.721 94.0068 14.7226C93.0186 14.7226 92.625 14.375 92.625 13.5068V10.9638H91.9102V10.2153H92.625V9.07373H93.5146Z" fill="white"/>
<path d="M95.707 8.43701H96.5879V10.9185H96.6582C96.7763 10.6591 96.9716 10.4425 97.2172 10.2982C97.4629 10.1539 97.7472 10.0888 98.0312 10.1118C98.2492 10.1 98.467 10.1364 98.6693 10.2184C98.8716 10.3004 99.0533 10.4261 99.2014 10.5864C99.3495 10.7468 99.4604 10.9378 99.5262 11.146C99.592 11.3541 99.611 11.5742 99.582 11.7905V14.6978H98.6924V12.0098C98.6924 11.2905 98.3574 10.9263 97.7295 10.9263C97.5768 10.9137 97.4232 10.9347 97.2794 10.9878C97.1356 11.0408 97.0052 11.1247 96.8972 11.2334C96.7892 11.3421 96.7062 11.4732 96.6542 11.6173C96.6021 11.7614 96.5822 11.9152 96.5957 12.0679V14.6977H95.7071L95.707 8.43701Z" fill="white"/>
<path d="M104.761 13.4819C104.641 13.8935 104.379 14.2495 104.022 14.4876C103.666 14.7258 103.237 14.8309 102.81 14.7847C102.514 14.7925 102.219 14.7357 101.946 14.6182C101.674 14.5006 101.43 14.3252 101.232 14.1041C101.034 13.8829 100.887 13.6214 100.8 13.3376C100.713 13.0537 100.69 12.7544 100.73 12.4605C100.691 12.1656 100.715 11.8656 100.801 11.581C100.888 11.2963 101.035 11.0335 101.231 10.8105C101.428 10.5874 101.671 10.4092 101.943 10.288C102.214 10.1668 102.509 10.1054 102.806 10.1079C104.059 10.1079 104.815 10.9639 104.815 12.3779V12.688H101.635V12.7378C101.621 12.9031 101.642 13.0694 101.696 13.2261C101.751 13.3829 101.837 13.5266 101.95 13.6481C102.063 13.7695 102.2 13.866 102.352 13.9314C102.504 13.9968 102.669 14.0297 102.835 14.0278C103.047 14.0533 103.263 14.0151 103.453 13.9178C103.644 13.8206 103.802 13.6689 103.906 13.4819L104.761 13.4819ZM101.635 12.0308H103.91C103.921 11.8796 103.9 11.7278 103.85 11.5851C103.799 11.4424 103.718 11.3119 103.614 11.2021C103.51 11.0922 103.383 11.0054 103.243 10.9472C103.103 10.8891 102.953 10.8608 102.801 10.8643C102.648 10.8623 102.495 10.8912 102.353 10.9491C102.21 11.0071 102.081 11.0929 101.972 11.2017C101.864 11.3104 101.778 11.4397 101.72 11.5821C101.662 11.7245 101.633 11.8771 101.635 12.0308H101.635Z" fill="white"/>
</g>
<defs>
<clipPath id="clip0_10582_11210">
<rect width="119.664" height="40" fill="white"/>
</clipPath>
</defs>
</svg>
